<svg width="1726" height="258" viewBox="0 0 1726 258" fill="none" xmlns="http://www.w3.org/2000/svg">
<path fill-rule="evenodd" clip-rule="evenodd" d="M-167.808 217.042C-180.892 92.8457 47.9436 68.8518 190.812 29.5279C309.672 -3.18781 444.847 -5.59126 583.03 10.3771C702.103 24.1373 810.056 102.796 928.953 114.827C1125.31 134.698 1308.96 19.0309 1492.29 102.388C1658.28 177.861 1712.4 349.984 1741.45 484.249C1769.02 611.706 1737.15 737.95 1649.78 830.31C1570.83 913.772 1371.13 887.167 1285.41 966.336C1173.98 1069.24 1289.24 1344.62 1094.61 1343.02C890.495 1341.35 827.055 1064.17 643.428 961.059C525.803 895.01 339.948 957.322 250.989 869.313C159.168 778.474 312.122 669.893 247.707 569.567C157.871 429.649 -152.683 360.601 -167.808 217.042Z" fill="url(#paint0_linear_721_1492)"/>
<defs>
<linearGradient id="paint0_linear_721_1492" x1="-180.803" y1="229.977" x2="1676.8" y2="856.747" gradientUnits="userSpaceOnUse">
<stop stop-color="#DB3B39"/>
<stop offset="1" stop-color="#F9CC65"/>
</linearGradient>
</defs>
</svg>
