<svg width="693" height="314" viewBox="0 0 693 314" fill="none" xmlns="http://www.w3.org/2000/svg">
<path fill-rule="evenodd" clip-rule="evenodd" d="M-103.358 41.0442C-52.988 -26.2703 58.5846 9.03791 139.245 18.4229C206.35 26.2309 266.937 53.2081 320.546 90.3667C366.74 122.387 378.71 185.832 425.608 216.916C503.061 268.252 636.172 246.453 679.198 328.082C718.155 401.991 664.185 502.796 616.292 578.68C570.827 650.716 499.742 709.707 419.542 739.49C347.069 766.404 271.19 710.869 197.676 734.137C102.12 764.38 28.3985 931.648 -56.5508 890.174C-145.64 846.678 -48.2957 689.298 -82.524 597.336C-104.45 538.428 -214.421 532.02 -213.804 467.679C-213.167 401.269 -96.7671 376.746 -79.7794 311.125C-56.088 219.608 -161.582 118.853 -103.358 41.0442Z" fill="url(#paint0_linear_721_1494)"/>
<defs>
<linearGradient id="paint0_linear_721_1494" x1="-114.924" y1="45.0569" x2="419.489" y2="758.881" gradientUnits="userSpaceOnUse">
<stop stop-color="#DB3B39"/>
<stop offset="1" stop-color="#F9CC65"/>
</linearGradient>
</defs>
</svg>
