<svg width="40" height="40" viewBox="0 0 40 40" fill="none" xmlns="http://www.w3.org/2000/svg">
<path d="M0 20C0 8.95431 8.95431 0 20 0C31.0457 0 40 8.95431 40 20C40 31.0457 31.0457 40 20 40C8.95431 40 0 31.0457 0 20Z" fill="#2A2A2A" fill-opacity="0.83"/>
<path d="M14.0078 19.9778L20.7277 13.2389C21.3961 12.5686 22.3026 12.1921 23.2479 12.1921C24.1931 12.1921 25.0996 12.5686 25.768 13.2389C26.4364 13.9092 26.8119 14.8182 26.8119 15.7661C26.8119 16.714 26.4364 17.6231 25.768 18.2934L17.7877 26.295C17.4516 26.6205 17.0015 26.8006 16.5343 26.7965C16.0671 26.7925 15.6202 26.6045 15.2898 26.2732C14.9595 25.9419 14.7721 25.4938 14.768 25.0253C14.7639 24.5567 14.9435 24.1054 15.2681 23.7684L22.4074 16.609C22.5189 16.4973 22.5817 16.3457 22.5818 16.1877C22.5819 16.0296 22.5194 15.878 22.408 15.7661C22.2966 15.6543 22.1455 15.5914 21.9879 15.5913C21.8303 15.5912 21.6791 15.6539 21.5676 15.7655L14.4283 22.925C13.8753 23.4842 13.5657 24.2404 13.5673 25.028C13.5689 25.8156 13.8816 26.5704 14.4369 27.1274C14.9921 27.6844 15.7448 27.9982 16.5302 28C17.3155 28.0018 18.0697 27.6916 18.6275 27.1372L26.6078 19.1356C27.4991 18.242 27.9999 17.0299 28 15.766C28.0001 14.5021 27.4995 13.2899 26.6084 12.3961C25.7173 11.5023 24.5086 11.0001 23.2483 11C21.9879 10.9999 20.7792 11.5019 19.8879 12.3955L13.1667 19.1356C13.0585 19.2479 12.9987 19.3984 13 19.5546C13.0014 19.7107 13.0638 19.8601 13.174 19.9706C13.2841 20.081 13.4331 20.1436 13.5888 20.145C13.7445 20.1463 13.8957 20.0863 14.0078 19.9778Z" fill="#F8F8F8"/>
</svg>
