<svg width="166" height="44" viewBox="0 0 166 44" fill="none" xmlns="http://www.w3.org/2000/svg">
<g clip-path="url(#clip0_721_1863)">
<path d="M29.4997 31.8706C29.3297 31.8706 29.1497 31.8206 29.0097 31.7106C24.2597 28.3706 21.9097 25.3406 21.8097 25.2106C20.0397 23.2106 19.3497 21.4906 19.5297 19.4906C19.6897 17.6806 20.7297 16.0506 22.2597 15.2206C24.6997 13.9006 27.6597 14.4306 29.4997 16.5106C31.3497 14.4406 34.2997 13.9206 36.7397 15.2306C38.2697 16.0606 39.3097 17.6906 39.4697 19.5006C39.6397 21.5006 38.9497 23.2206 37.1497 25.2606C37.0797 25.3506 34.7297 28.3706 29.9797 31.7106C29.8497 31.8106 29.6797 31.8706 29.4997 31.8706ZM29.1397 30.4806L29.1297 30.4906C29.1297 30.4806 29.1297 30.4806 29.1397 30.4806ZM25.0797 16.0006C24.3597 16.0006 23.6397 16.1806 22.9697 16.5406C21.8797 17.1306 21.1297 18.3106 21.0197 19.6206C20.8797 21.1906 21.4497 22.5306 22.9697 24.2606C23.0197 24.3206 25.1997 27.1206 29.4997 30.2206C33.8197 27.1106 35.9797 24.3306 35.9997 24.3006C37.5497 22.5406 38.1197 21.2006 37.9797 19.6306C37.8697 18.3206 37.1197 17.1406 36.0297 16.5506C34.1697 15.5506 31.9097 15.9806 30.5397 17.6006L29.4997 18.8406L28.4497 17.5806C27.5797 16.5506 26.3397 16.0006 25.0797 16.0006Z" fill="#DB3B39"/>
</g>
<path d="M52.0584 27V16.0909H54.0346V25.3434H58.8393V27H52.0584ZM60.4693 27V18.8182H62.3975V27H60.4693ZM61.4387 17.657C61.1333 17.657 60.8706 17.5558 60.6504 17.3533C60.4302 17.1474 60.3201 16.9006 60.3201 16.6129C60.3201 16.3217 60.4302 16.0749 60.6504 15.8725C60.8706 15.6665 61.1333 15.5636 61.4387 15.5636C61.7477 15.5636 62.0105 15.6665 62.2271 15.8725C62.4473 16.0749 62.5574 16.3217 62.5574 16.6129C62.5574 16.9006 62.4473 17.1474 62.2271 17.3533C62.0105 17.5558 61.7477 17.657 61.4387 17.657ZM66.1382 24.4325L66.1329 22.1048H66.4419L69.3822 18.8182H71.6354L68.0186 22.8452H67.6191L66.1382 24.4325ZM64.3804 27V16.0909H66.3087V27H64.3804ZM69.5154 27L66.852 23.2766L68.1517 21.9183L71.8218 27H69.5154ZM76.2057 27.1598C75.3854 27.1598 74.6769 26.9893 74.0803 26.6484C73.4873 26.304 73.031 25.8175 72.7114 25.1889C72.3918 24.5568 72.232 23.8129 72.232 22.957C72.232 22.1154 72.3918 21.3768 72.7114 20.7411C73.0345 20.1019 73.4855 19.6048 74.0644 19.2496C74.6432 18.891 75.3232 18.7116 76.1045 18.7116C76.6088 18.7116 77.0846 18.7933 77.532 18.9567C77.983 19.1165 78.3808 19.3651 78.7252 19.7024C79.0732 20.0398 79.3467 20.4695 79.5455 20.9915C79.7444 21.5099 79.8438 22.1278 79.8438 22.8452V23.4364H73.1375V22.1367H77.9955C77.9919 21.7674 77.912 21.4389 77.7558 21.1513C77.5995 20.8601 77.3811 20.631 77.1006 20.4641C76.8236 20.2972 76.5004 20.2138 76.1311 20.2138C75.7369 20.2138 75.3907 20.3097 75.0924 20.5014C74.7941 20.6896 74.5615 20.9382 74.3946 21.2472C74.2313 21.5526 74.1478 21.8881 74.1443 22.2539V23.3885C74.1443 23.8643 74.2313 24.2727 74.4053 24.6136C74.5793 24.951 74.8225 25.2102 75.135 25.3913C75.4475 25.5689 75.8133 25.6577 76.2323 25.6577C76.5129 25.6577 76.7668 25.6186 76.9941 25.5405C77.2213 25.4588 77.4184 25.3398 77.5853 25.1836C77.7522 25.0273 77.8783 24.8338 77.9635 24.603L79.7639 24.8054C79.6503 25.2812 79.4337 25.6967 79.1141 26.0518C78.798 26.4034 78.3932 26.6768 77.8996 26.8722C77.406 27.0639 76.8414 27.1598 76.2057 27.1598ZM89.2814 18.8182V20.3097H84.5779V18.8182H89.2814ZM85.7392 16.858H87.6674V24.5391C87.6674 24.7983 87.7065 24.9972 87.7846 25.1357C87.8663 25.2706 87.9728 25.3629 88.1042 25.4126C88.2356 25.4624 88.3812 25.4872 88.541 25.4872C88.6618 25.4872 88.7718 25.4783 88.8713 25.4606C88.9743 25.4428 89.0524 25.4268 89.1056 25.4126L89.4306 26.9201C89.3276 26.9556 89.1802 26.9947 88.9885 27.0373C88.8002 27.0799 88.5694 27.1048 88.296 27.1119C87.813 27.1261 87.378 27.0533 86.9909 26.8935C86.6039 26.7301 86.2967 26.478 86.0694 26.1371C85.8457 25.7962 85.7356 25.37 85.7392 24.8587V16.858ZM92.9981 22.206V27H91.0699V16.0909H92.9555V20.2085H93.0514C93.2432 19.7468 93.5397 19.3828 93.941 19.1165C94.3458 18.8466 94.8607 18.7116 95.4857 18.7116C96.0539 18.7116 96.5493 18.8306 96.9719 19.0685C97.3944 19.3065 97.7211 19.6545 97.952 20.1126C98.1863 20.5707 98.3035 21.13 98.3035 21.7905V27H96.3753V22.0888C96.3753 21.5384 96.2332 21.1104 95.9491 20.805C95.6686 20.4961 95.2744 20.3416 94.7666 20.3416C94.4257 20.3416 94.1203 20.4162 93.8504 20.5653C93.5841 20.7109 93.3746 20.9222 93.2219 21.1992C93.0727 21.4762 92.9981 21.8118 92.9981 22.206ZM100.269 27V18.8182H102.197V27H100.269ZM101.239 17.657C100.933 17.657 100.67 17.5558 100.45 17.3533C100.23 17.1474 100.12 16.9006 100.12 16.6129C100.12 16.3217 100.23 16.0749 100.45 15.8725C100.67 15.6665 100.933 15.5636 101.239 15.5636C101.547 15.5636 101.81 15.6665 102.027 15.8725C102.247 16.0749 102.357 16.3217 102.357 16.6129C102.357 16.9006 102.247 17.1474 102.027 17.3533C101.81 17.5558 101.547 17.657 101.239 17.657ZM110.647 20.9808L108.889 21.1726C108.839 20.995 108.752 20.8281 108.628 20.6719C108.507 20.5156 108.344 20.3896 108.138 20.2937C107.932 20.1978 107.68 20.1499 107.382 20.1499C106.98 20.1499 106.643 20.2369 106.369 20.4109C106.1 20.5849 105.966 20.8104 105.97 21.0874C105.966 21.3253 106.053 21.5188 106.231 21.668C106.412 21.8171 106.71 21.9396 107.126 22.0355L108.521 22.3338C109.296 22.5007 109.871 22.7653 110.247 23.1275C110.627 23.4897 110.819 23.9638 110.823 24.5497C110.819 25.0646 110.668 25.5192 110.37 25.9134C110.075 26.304 109.665 26.6094 109.139 26.8295C108.614 27.0497 108.01 27.1598 107.328 27.1598C106.327 27.1598 105.521 26.9503 104.91 26.5312C104.299 26.1087 103.935 25.521 103.818 24.7681L105.698 24.587C105.784 24.9563 105.965 25.2351 106.242 25.4233C106.519 25.6115 106.879 25.7056 107.323 25.7056C107.781 25.7056 108.149 25.6115 108.426 25.4233C108.706 25.2351 108.846 25.0025 108.846 24.7255C108.846 24.4911 108.756 24.2976 108.575 24.1449C108.397 23.9922 108.12 23.875 107.744 23.7933L106.348 23.5004C105.563 23.337 104.983 23.0618 104.606 22.6747C104.23 22.2841 104.044 21.7905 104.047 21.1939C104.044 20.6896 104.18 20.2528 104.457 19.8835C104.738 19.5107 105.127 19.223 105.624 19.0206C106.124 18.8146 106.702 18.7116 107.355 18.7116C108.314 18.7116 109.068 18.9158 109.619 19.3242C110.173 19.7326 110.515 20.2848 110.647 20.9808ZM116.133 27V18.8182H118.062V27H116.133ZM117.103 17.657C116.797 17.657 116.535 17.5558 116.314 17.3533C116.094 17.1474 115.984 16.9006 115.984 16.6129C115.984 16.3217 116.094 16.0749 116.314 15.8725C116.535 15.6665 116.797 15.5636 117.103 15.5636C117.412 15.5636 117.675 15.6665 117.891 15.8725C118.111 16.0749 118.221 16.3217 118.221 16.6129C118.221 16.9006 118.111 17.1474 117.891 17.3533C117.675 17.5558 117.412 17.657 117.103 17.657ZM124.13 18.8182V20.3097H119.427V18.8182H124.13ZM120.588 16.858H122.516V24.5391C122.516 24.7983 122.555 24.9972 122.633 25.1357C122.715 25.2706 122.821 25.3629 122.953 25.4126C123.084 25.4624 123.23 25.4872 123.39 25.4872C123.51 25.4872 123.62 25.4783 123.72 25.4606C123.823 25.4428 123.901 25.4268 123.954 25.4126L124.279 26.9201C124.176 26.9556 124.029 26.9947 123.837 27.0373C123.649 27.0799 123.418 27.1048 123.145 27.1119C122.662 27.1261 122.227 27.0533 121.84 26.8935C121.453 26.7301 121.145 26.478 120.918 26.1371C120.694 25.7962 120.584 25.37 120.588 24.8587V16.858ZM129.277 27.1598C128.457 27.1598 127.748 26.9893 127.152 26.6484C126.559 26.304 126.102 25.8175 125.783 25.1889C125.463 24.5568 125.303 23.8129 125.303 22.957C125.303 22.1154 125.463 21.3768 125.783 20.7411C126.106 20.1019 126.557 19.6048 127.136 19.2496C127.714 18.891 128.395 18.7116 129.176 18.7116C129.68 18.7116 130.156 18.7933 130.603 18.9567C131.054 19.1165 131.452 19.3651 131.797 19.7024C132.145 20.0398 132.418 20.4695 132.617 20.9915C132.816 21.5099 132.915 22.1278 132.915 22.8452V23.4364H126.209V22.1367H131.067C131.063 21.7674 130.983 21.4389 130.827 21.1513C130.671 20.8601 130.452 20.631 130.172 20.4641C129.895 20.2972 129.572 20.2138 129.202 20.2138C128.808 20.2138 128.462 20.3097 128.164 20.5014C127.865 20.6896 127.633 20.9382 127.466 21.2472C127.303 21.5526 127.219 21.8881 127.216 22.2539V23.3885C127.216 23.8643 127.303 24.2727 127.477 24.6136C127.651 24.951 127.894 25.2102 128.206 25.3913C128.519 25.5689 128.885 25.6577 129.304 25.6577C129.584 25.6577 129.838 25.6186 130.065 25.5405C130.293 25.4588 130.49 25.3398 130.657 25.1836C130.824 25.0273 130.95 24.8338 131.035 24.603L132.835 24.8054C132.722 25.2812 132.505 25.6967 132.185 26.0518C131.869 26.4034 131.464 26.6768 130.971 26.8722C130.477 27.0639 129.913 27.1598 129.277 27.1598ZM134.546 27V18.8182H136.389V20.2085H136.485C136.656 19.7397 136.938 19.3739 137.332 19.1112C137.726 18.8448 138.197 18.7116 138.744 18.7116C139.298 18.7116 139.765 18.8466 140.145 19.1165C140.528 19.3828 140.798 19.7468 140.954 20.2085H141.04C141.221 19.7539 141.526 19.3917 141.956 19.1218C142.389 18.8484 142.902 18.7116 143.495 18.7116C144.248 18.7116 144.862 18.9496 145.338 19.4254C145.814 19.9013 146.052 20.5955 146.052 21.5082V27H144.119V21.8065C144.119 21.2987 143.984 20.9276 143.714 20.6932C143.444 20.4553 143.114 20.3363 142.723 20.3363C142.258 20.3363 141.894 20.4819 141.631 20.7731C141.372 21.0607 141.242 21.4354 141.242 21.897V27H139.351V21.7266C139.351 21.304 139.223 20.9666 138.968 20.7145C138.715 20.4624 138.385 20.3363 137.977 20.3363C137.7 20.3363 137.448 20.4073 137.22 20.5494C136.993 20.6879 136.812 20.8849 136.677 21.1406C136.542 21.3928 136.475 21.6875 136.475 22.0249V27H134.546Z" fill="#DB3B39"/>
<rect x="1" y="0.5" width="164.281" height="43" rx="3.5" stroke="black"/>
<defs>
<clipPath id="clip0_721_1863">
<rect width="24" height="24" fill="white" transform="translate(17.5 10)"/>
</clipPath>
</defs>
</svg>
