<svg width="22" height="19" viewBox="0 0 22 19" fill="none" xmlns="http://www.w3.org/2000/svg">
<path fill-rule="evenodd" clip-rule="evenodd" d="M10.0513 1.97445C7.75206 -0.324818 4.02373 -0.324818 1.72445 1.97445C-0.574818 4.27373 -0.574818 8.00206 1.72445 10.3013L9.82664 18.4035H11.4644L19.5666 10.3013C21.8659 8.00206 21.8659 4.27373 19.5666 1.97445C17.2673 -0.324818 13.539 -0.324818 11.2397 1.97445L10.6455 2.56865L10.0513 1.97445ZM10.786 16.7657L18.4085 9.14328C20.0682 7.48357 20.0682 4.79222 18.4085 3.13254C16.7489 1.47285 14.0575 1.47285 12.3978 3.13254L11.055 4.47537H10.6455H10.2361L8.89327 3.13254C7.23357 1.47285 4.54222 1.47285 2.88254 3.13254C1.22285 4.79222 1.22285 7.48357 2.88254 9.14328L10.505 16.7657H10.786Z" fill="#F5F0F0"/>
</svg>
