<svg width="80" height="44" viewBox="0 0 80 44" fill="none" xmlns="http://www.w3.org/2000/svg">
<g clip-path="url(#clip0_721_1856)">
<path d="M2.75 25.75V30C2.75 30.14 2.86 30.25 3 30.25H21C21.14 30.25 21.25 30.14 21.25 30V25.75" stroke="#222222" stroke-width="1.5" stroke-miterlimit="10" stroke-linecap="round"/>
<path d="M12 25.75V13.75" stroke="#222222" stroke-width="1.5" stroke-miterlimit="10" stroke-linecap="round"/>
<path d="M16.25 18L12 13.75L7.75 18" stroke="#222222" stroke-width="1.5" stroke-miterlimit="10" stroke-linecap="round" stroke-linejoin="round"/>
</g>
<path d="M43.4768 19.0898C43.4271 18.6246 43.2176 18.2624 42.8482 18.0032C42.4825 17.744 42.0066 17.6143 41.4207 17.6143C41.0087 17.6143 40.6554 17.6765 40.3607 17.8008C40.0659 17.9251 39.8404 18.0937 39.6842 18.3068C39.5279 18.5199 39.448 18.7631 39.4445 19.0366C39.4445 19.2638 39.496 19.4609 39.5989 19.6278C39.7055 19.7947 39.8493 19.9368 40.0304 20.054C40.2115 20.1676 40.4122 20.2635 40.6323 20.3416C40.8525 20.4197 41.0744 20.4854 41.2982 20.5387L42.3209 20.7944C42.7328 20.8903 43.1288 21.0199 43.5087 21.1832C43.8923 21.3466 44.235 21.5526 44.5368 21.8011C44.8422 22.0497 45.0837 22.3498 45.2612 22.7013C45.4388 23.0529 45.5276 23.4648 45.5276 23.9371C45.5276 24.5763 45.3642 25.1392 45.0375 25.6257C44.7108 26.1087 44.2385 26.4869 43.6206 26.7603C43.0063 27.0302 42.2623 27.1651 41.3887 27.1651C40.54 27.1651 39.8031 27.0337 39.1781 26.771C38.5567 26.5082 38.0702 26.1246 37.7186 25.6204C37.3706 25.1161 37.1824 24.5018 37.154 23.7773H39.0982C39.1266 24.1573 39.2438 24.4734 39.4498 24.7255C39.6558 24.9776 39.9239 25.1658 40.2541 25.2901C40.5879 25.4144 40.9608 25.4766 41.3727 25.4766C41.8024 25.4766 42.1788 25.4126 42.502 25.2848C42.8287 25.1534 43.0844 24.9723 43.269 24.7415C43.4537 24.5071 43.5478 24.2337 43.5514 23.9212C43.5478 23.6371 43.4644 23.4027 43.301 23.218C43.1377 23.0298 42.9086 22.8736 42.6139 22.7493C42.3227 22.6214 41.9818 22.5078 41.5911 22.4084L40.35 22.0888C39.4516 21.858 38.7413 21.5082 38.2193 21.0394C37.7009 20.5671 37.4416 19.9403 37.4416 19.1591C37.4416 18.5163 37.6156 17.9535 37.9636 17.4705C38.3152 16.9876 38.7928 16.6129 39.3965 16.3466C40.0002 16.0767 40.6838 15.9418 41.4473 15.9418C42.2215 15.9418 42.8997 16.0767 43.4821 16.3466C44.068 16.6129 44.5279 16.984 44.8617 17.4599C45.1955 17.9322 45.3678 18.4755 45.3784 19.0898H43.4768ZM49.1324 22.206V27H47.2041V16.0909H49.0898V20.2085H49.1857C49.3774 19.7468 49.674 19.3828 50.0752 19.1165C50.4801 18.8466 50.995 18.7116 51.62 18.7116C52.1882 18.7116 52.6835 18.8306 53.1061 19.0685C53.5287 19.3065 53.8554 19.6545 54.0862 20.1126C54.3206 20.5707 54.4378 21.13 54.4378 21.7905V27H52.5095V22.0888C52.5095 21.5384 52.3675 21.1104 52.0834 20.805C51.8029 20.4961 51.4087 20.3416 50.9009 20.3416C50.56 20.3416 50.2546 20.4162 49.9847 20.5653C49.7184 20.7109 49.5088 20.9222 49.3561 21.1992C49.207 21.4762 49.1324 21.8118 49.1324 22.206ZM58.7578 27.1651C58.2393 27.1651 57.7723 27.0728 57.3568 26.8881C56.9449 26.6999 56.6182 26.4229 56.3767 26.0572C56.1388 25.6914 56.0198 25.2404 56.0198 24.7042C56.0198 24.2425 56.1051 23.8608 56.2755 23.5589C56.446 23.2571 56.6786 23.0156 56.9733 22.8345C57.2681 22.6534 57.6001 22.5167 57.9694 22.4244C58.3423 22.3285 58.7276 22.2592 59.1253 22.2166C59.6047 22.1669 59.9936 22.1225 60.2919 22.0835C60.5902 22.0408 60.8068 21.9769 60.9417 21.8917C61.0802 21.8029 61.1495 21.6662 61.1495 21.4815V21.4496C61.1495 21.0483 61.0305 20.7376 60.7926 20.5174C60.5546 20.2972 60.212 20.1871 59.7645 20.1871C59.2922 20.1871 58.9176 20.2901 58.6406 20.4961C58.3671 20.7021 58.1825 20.9453 58.0866 21.2259L56.2862 20.9702C56.4282 20.473 56.6626 20.0575 56.9893 19.7237C57.316 19.3864 57.7155 19.1342 58.1878 18.9673C58.6601 18.7969 59.1821 18.7116 59.7539 18.7116C60.148 18.7116 60.5404 18.7578 60.9311 18.8501C61.3217 18.9425 61.6786 19.0952 62.0017 19.3082C62.3249 19.5178 62.5841 19.8036 62.7794 20.1658C62.9783 20.5281 63.0777 20.9808 63.0777 21.5241V27H61.224V25.8761H61.1601C61.0429 26.1033 60.8778 26.3164 60.6647 26.5153C60.4552 26.7106 60.1907 26.8686 59.871 26.9893C59.555 27.1065 59.1839 27.1651 58.7578 27.1651ZM59.2585 25.7482C59.6456 25.7482 59.9811 25.6719 60.2652 25.5192C60.5493 25.3629 60.7677 25.157 60.9204 24.9013C61.0767 24.6456 61.1548 24.3668 61.1548 24.065V23.1009C61.0944 23.1506 60.9914 23.1967 60.8458 23.2393C60.7038 23.282 60.544 23.3192 60.3664 23.3512C60.1889 23.3832 60.0131 23.4116 59.8391 23.4364C59.6651 23.4613 59.5142 23.4826 59.3863 23.5004C59.0987 23.5394 58.8412 23.6033 58.6139 23.6921C58.3867 23.7809 58.2073 23.9052 58.076 24.065C57.9446 24.2212 57.8789 24.4237 57.8789 24.6722C57.8789 25.0273 58.0085 25.2955 58.2677 25.4766C58.5269 25.6577 58.8572 25.7482 59.2585 25.7482ZM65.0166 27V18.8182H66.8863V20.1818H66.9715C67.1207 19.7095 67.3764 19.3455 67.7386 19.0898C68.1044 18.8306 68.5216 18.701 68.9904 18.701C69.0969 18.701 69.2159 18.7063 69.3473 18.717C69.4822 18.7241 69.5941 18.7365 69.6828 18.7543V20.5281C69.6012 20.4996 69.4715 20.4748 69.294 20.4535C69.12 20.4286 68.9513 20.4162 68.788 20.4162C68.4364 20.4162 68.1203 20.4925 67.8398 20.6452C67.5628 20.7944 67.3444 21.0021 67.1846 21.2685C67.0248 21.5348 66.9449 21.842 66.9449 22.19V27H65.0166ZM74.2492 27.1598C73.4288 27.1598 72.7204 26.9893 72.1238 26.6484C71.5308 26.304 71.0744 25.8175 70.7548 25.1889C70.4352 24.5568 70.2754 23.8129 70.2754 22.957C70.2754 22.1154 70.4352 21.3768 70.7548 20.7411C71.078 20.1019 71.529 19.6048 72.1078 19.2496C72.6867 18.891 73.3667 18.7116 74.1479 18.7116C74.6522 18.7116 75.1281 18.7933 75.5755 18.9567C76.0265 19.1165 76.4242 19.3651 76.7687 19.7024C77.1167 20.0398 77.3901 20.4695 77.589 20.9915C77.7879 21.5099 77.8873 22.1278 77.8873 22.8452V23.4364H71.181V22.1367H76.0389C76.0354 21.7674 75.9555 21.4389 75.7992 21.1513C75.643 20.8601 75.4246 20.631 75.144 20.4641C74.8671 20.2972 74.5439 20.2138 74.1746 20.2138C73.7804 20.2138 73.4342 20.3097 73.1359 20.5014C72.8376 20.6896 72.605 20.9382 72.4381 21.2472C72.2747 21.5526 72.1913 21.8881 72.1877 22.2539V23.3885C72.1877 23.8643 72.2747 24.2727 72.4487 24.6136C72.6227 24.951 72.866 25.2102 73.1785 25.3913C73.491 25.5689 73.8568 25.6577 74.2758 25.6577C74.5563 25.6577 74.8102 25.6186 75.0375 25.5405C75.2648 25.4588 75.4619 25.3398 75.6288 25.1836C75.7957 25.0273 75.9217 24.8338 76.007 24.603L77.8074 24.8054C77.6938 25.2812 77.4771 25.6967 77.1575 26.0518C76.8415 26.4034 76.4367 26.6768 75.943 26.8722C75.4494 27.0639 74.8848 27.1598 74.2492 27.1598Z" fill="#222222"/>
<defs>
<clipPath id="clip0_721_1856">
<rect width="24" height="24" fill="white" transform="translate(0 10)"/>
</clipPath>
</defs>
</svg>
