<svg width="185" height="109" viewBox="0 0 185 109" fill="none" xmlns="http://www.w3.org/2000/svg">
<path d="M101.863 6.03809L104.976 13.3506C105.051 13.5006 105.201 13.6131 105.369 13.6318L113.282 14.3443C114.107 14.4193 114.444 15.4506 113.807 15.9943L107.826 21.2068C107.694 21.3193 107.638 21.4881 107.676 21.6568L109.438 29.4006C109.626 30.2068 108.744 30.8443 108.051 30.4131L101.375 26.4193C101.15 26.2881 100.869 26.2881 100.644 26.4193L93.9692 30.4131C93.2567 30.8068 92.3755 30.1881 92.563 29.3818L94.3255 21.6381C94.363 21.4693 94.3067 21.3006 94.1755 21.1881L88.1942 15.9756C87.5755 15.4318 87.913 14.4193 88.7192 14.3443L96.6317 13.6318C96.8005 13.6131 96.9505 13.5006 97.0255 13.3506L100.138 6.03809C100.457 5.28809 101.544 5.28809 101.863 6.03809Z" fill="#F9CC65"/>
<path d="M129.863 6.03809L132.976 13.3506C133.051 13.5006 133.201 13.6131 133.369 13.6318L141.282 14.3443C142.107 14.4193 142.444 15.4506 141.807 15.9943L135.826 21.2068C135.694 21.3193 135.638 21.4881 135.676 21.6568L137.438 29.4006C137.626 30.2068 136.744 30.8443 136.051 30.4131L129.375 26.4193C129.15 26.2881 128.869 26.2881 128.644 26.4193L121.969 30.4131C121.257 30.8068 120.375 30.1881 120.563 29.3818L122.325 21.6381C122.363 21.4693 122.307 21.3006 122.175 21.1881L116.194 15.9756C115.576 15.4318 115.913 14.4193 116.719 14.3443L124.632 13.6318C124.8 13.6131 124.95 13.5006 125.025 13.3506L128.138 6.03809C128.457 5.28809 129.544 5.28809 129.863 6.03809Z" fill="#F9CC65"/>
<path d="M159.863 6.03809L162.976 13.3506C163.051 13.5006 163.201 13.6131 163.369 13.6318L171.282 14.3443C172.107 14.4193 172.444 15.4506 171.807 15.9943L165.826 21.2068C165.694 21.3193 165.638 21.4881 165.676 21.6568L167.438 29.4006C167.626 30.2068 166.744 30.8443 166.051 30.4131L159.375 26.4193C159.15 26.2881 158.869 26.2881 158.644 26.4193L151.969 30.4131C151.257 30.8068 150.375 30.1881 150.563 29.3818L152.325 21.6381C152.363 21.4693 152.307 21.3006 152.175 21.1881L146.194 15.9756C145.576 15.4318 145.913 14.4193 146.719 14.3443L154.632 13.6318C154.8 13.6131 154.95 13.5006 155.025 13.3506L158.138 6.03809C158.457 5.28809 159.544 5.28809 159.863 6.03809Z" fill="#F9CC65"/>
<path d="M73.863 6.03809L76.9756 13.3506C77.0506 13.5006 77.2006 13.6131 77.3693 13.6318L85.2818 14.3443C86.1068 14.4193 86.4443 15.4506 85.8068 15.9943L79.8256 21.2068C79.6943 21.3193 79.6381 21.4881 79.6756 21.6568L81.4381 29.4006C81.6256 30.2068 80.7443 30.8443 80.0506 30.4131L73.3755 26.4193C73.1505 26.2881 72.8692 26.2881 72.6443 26.4193L65.9692 30.4131C65.2567 30.8068 64.3755 30.1881 64.563 29.3818L66.3255 21.6381C66.363 21.4693 66.3067 21.3006 66.1755 21.1881L60.1942 15.9756C59.5755 15.4318 59.913 14.4193 60.7192 14.3443L68.6317 13.6318C68.8005 13.6131 68.9505 13.5006 69.0255 13.3506L72.138 6.03809C72.4567 5.28809 73.5442 5.28809 73.863 6.03809Z" fill="#F9CC65"/>
<path d="M45.863 6.03809L48.9756 13.3506C49.0506 13.5006 49.2006 13.6131 49.3693 13.6318L57.2818 14.3443C58.1068 14.4193 58.4443 15.4506 57.8068 15.9943L51.8256 21.2068C51.6943 21.3193 51.6381 21.4881 51.6756 21.6568L53.4381 29.4006C53.6256 30.2068 52.7443 30.8443 52.0506 30.4131L45.3755 26.4193C45.1505 26.2881 44.8692 26.2881 44.6443 26.4193L37.9692 30.4131C37.2567 30.8068 36.3755 30.1881 36.563 29.3818L38.3255 21.6381C38.363 21.4693 38.3067 21.3006 38.1755 21.1881L32.1942 15.9756C31.5755 15.4318 31.913 14.4193 32.7192 14.3443L40.6317 13.6318C40.8005 13.6131 40.9505 13.5006 41.0255 13.3506L44.138 6.03809C44.4567 5.28809 45.5442 5.28809 45.863 6.03809Z" fill="#F9CC65"/>
</svg>
