<svg width="87" height="85" viewBox="0 0 87 85" fill="none" xmlns="http://www.w3.org/2000/svg">
<path d="M37.3541 49.8739L27.9886 40.681C27.1992 39.9061 26.2303 39.5187 25.0821 39.5187C23.9338 39.5187 22.9291 39.9414 22.0679 40.7867C21.2785 41.5616 20.8837 42.5478 20.8837 43.7453C20.8837 44.9428 21.2785 45.929 22.0679 46.7039L34.34 58.7497C35.1294 59.5246 36.1341 59.912 37.3541 59.912C38.5742 59.912 39.5789 59.5246 40.3683 58.7497L64.8048 34.7638C65.5943 33.9889 65.989 33.0379 65.989 31.9108C65.989 30.7837 65.5584 29.7975 64.6972 28.9522C63.9078 28.1773 62.903 27.7899 61.683 27.7899C60.463 27.7899 59.4582 28.1773 58.6688 28.9522L37.3541 49.8739ZM43.3825 84.532C37.4259 84.532 31.8281 83.4218 26.5892 81.2014C21.3502 78.981 16.793 75.9703 12.9177 72.1692C9.04226 68.3652 5.97496 63.8921 3.71575 58.7497C1.45654 53.6074 0.325502 48.1128 0.322632 42.266C0.322632 36.4192 1.45367 30.9246 3.71575 25.7823C5.97783 20.6399 9.04513 16.1667 12.9177 12.3628C16.793 8.55886 21.3502 5.54812 26.5892 3.33056C31.8281 1.11301 37.4259 0.00281773 43.3825 0C49.3392 0 54.9369 1.11019 60.1759 3.33056C65.4148 5.55093 69.972 8.56168 73.8474 12.3628C77.7228 16.1667 80.7915 20.6399 83.0536 25.7823C85.3157 30.9246 86.4453 36.4192 86.4424 42.266C86.4424 48.1128 85.3114 53.6074 83.0493 58.7497C80.7872 63.8921 77.7199 68.3652 73.8474 72.1692C69.972 75.9731 65.4148 78.9853 60.1759 81.2056C54.9369 83.426 49.3392 84.5348 43.3825 84.532Z" fill="#DB3B39"/>
</svg>
