<svg width="199" height="40" viewBox="0 0 199 40" fill="none" xmlns="http://www.w3.org/2000/svg">
<path d="M14.4062 21.7102V9.18182H20.4574V31H14.6477V27.0369H14.4205C13.928 28.3153 13.1089 29.3428 11.9631 30.1193C10.8267 30.8958 9.43939 31.2841 7.80114 31.2841C6.3428 31.2841 5.05966 30.9527 3.9517 30.2898C2.84375 29.6269 1.97727 28.6847 1.35227 27.4631C0.736742 26.2415 0.424242 24.7784 0.414773 23.0739V9.18182H6.46591V21.9943C6.47538 23.2822 6.82102 24.3002 7.50284 25.0483C8.18466 25.7964 9.09849 26.1705 10.2443 26.1705C10.9735 26.1705 11.6553 26.0047 12.2898 25.6733C12.9242 25.3324 13.4356 24.8305 13.8239 24.1676C14.2216 23.5047 14.4157 22.6856 14.4062 21.7102ZM28.9487 18.3864V31H22.8976V9.18182H28.6646V13.0312H28.9203C29.4033 11.7623 30.2129 10.7585 31.3493 10.0199C32.4857 9.27178 33.8635 8.89773 35.4828 8.89773C36.998 8.89773 38.319 9.22917 39.4459 9.89205C40.5728 10.5549 41.4487 11.5019 42.0737 12.733C42.6987 13.9545 43.0112 15.4129 43.0112 17.108V31H36.9601V18.1875C36.9696 16.8523 36.6286 15.8106 35.9374 15.0625C35.2461 14.3049 34.2944 13.9261 33.0822 13.9261C32.2679 13.9261 31.5482 14.1013 30.9232 14.4517C30.3076 14.8021 29.8247 15.3134 29.4743 15.9858C29.1334 16.6487 28.9582 17.4489 28.9487 18.3864ZM45.3804 31V9.18182H51.4315V31H45.3804ZM48.4202 6.36932C47.5206 6.36932 46.7488 6.07102 46.1048 5.47443C45.4704 4.86837 45.1531 4.14394 45.1531 3.30114C45.1531 2.4678 45.4704 1.75284 46.1048 1.15625C46.7488 0.550188 47.5206 0.247158 48.4202 0.247158C49.3198 0.247158 50.0868 0.550188 50.7213 1.15625C51.3652 1.75284 51.6872 2.4678 51.6872 3.30114C51.6872 4.14394 51.3652 4.86837 50.7213 5.47443C50.0868 6.07102 49.3198 6.36932 48.4202 6.36932ZM72.0322 15.4034L66.4925 15.7443C66.3978 15.2708 66.1942 14.8447 65.8817 14.4659C65.5692 14.0777 65.1572 13.7699 64.6459 13.5426C64.144 13.3059 63.5427 13.1875 62.8419 13.1875C61.9044 13.1875 61.1137 13.3864 60.4697 13.7841C59.8258 14.1723 59.5038 14.6932 59.5038 15.3466C59.5038 15.8674 59.7122 16.3078 60.1288 16.6676C60.5455 17.0275 61.2605 17.3163 62.2737 17.5341L66.2226 18.3295C68.3438 18.7652 69.9252 19.4659 70.9669 20.4318C72.0086 21.3977 72.5294 22.6667 72.5294 24.2386C72.5294 25.6686 72.108 26.9233 71.2652 28.0028C70.4319 29.0824 69.286 29.9252 67.8277 30.5312C66.3788 31.1278 64.7074 31.4261 62.8135 31.4261C59.9252 31.4261 57.6241 30.8248 55.9101 29.6222C54.2055 28.41 53.2065 26.7623 52.9129 24.679L58.8646 24.3665C59.0446 25.2472 59.4802 25.9195 60.1714 26.3835C60.8627 26.8381 61.7482 27.0653 62.8277 27.0653C63.8883 27.0653 64.7406 26.8617 65.3845 26.4545C66.0379 26.0379 66.3694 25.5028 66.3788 24.8494C66.3694 24.3002 66.1374 23.8504 65.6828 23.5C65.2283 23.1402 64.5275 22.8655 63.5805 22.6761L59.8021 21.9233C57.6714 21.4972 56.0853 20.7585 55.0436 19.7074C54.0114 18.6562 53.4953 17.3163 53.4953 15.6875C53.4953 14.286 53.8741 13.0786 54.6317 12.0653C55.3987 11.0521 56.4735 10.2708 57.8561 9.72159C59.2482 9.17235 60.8769 8.89773 62.7425 8.89773C65.4982 8.89773 67.6667 9.48011 69.2482 10.6449C70.8391 11.8097 71.7671 13.3958 72.0322 15.4034ZM78.2438 31L72.3063 9.18182H78.4284L81.8091 23.8409H82.008L85.5307 9.18182H91.5392L95.1188 23.7557H95.3034L98.6273 9.18182H104.735L98.8119 31H92.4057L88.6557 17.2784H88.3858L84.6358 31H78.2438ZM111.785 31.4119C110.393 31.4119 109.152 31.1705 108.063 30.6875C106.974 30.1951 106.112 29.4706 105.478 28.5142C104.853 27.5483 104.54 26.3456 104.54 24.9062C104.54 23.6941 104.763 22.6761 105.208 21.8523C105.653 21.0284 106.259 20.3655 107.026 19.8636C107.793 19.3617 108.665 18.983 109.64 18.7273C110.625 18.4716 111.657 18.2917 112.737 18.1875C114.005 18.0549 115.028 17.9318 115.805 17.8182C116.581 17.6951 117.145 17.5152 117.495 17.2784C117.845 17.0417 118.021 16.6913 118.021 16.2273V16.142C118.021 15.2424 117.737 14.5464 117.168 14.054C116.61 13.5616 115.814 13.3153 114.782 13.3153C113.693 13.3153 112.826 13.5568 112.183 14.0398C111.539 14.5133 111.112 15.1098 110.904 15.8295L105.308 15.375C105.592 14.0492 106.15 12.9034 106.984 11.9375C107.817 10.9621 108.892 10.214 110.208 9.69318C111.534 9.16288 113.068 8.89773 114.81 8.89773C116.022 8.89773 117.183 9.03977 118.29 9.32386C119.408 9.60795 120.397 10.0483 121.259 10.6449C122.13 11.2415 122.817 12.0085 123.319 12.946C123.821 13.8741 124.072 14.9867 124.072 16.2841V31H118.333V27.9744H118.163C117.812 28.6562 117.344 29.2576 116.756 29.7784C116.169 30.2898 115.464 30.6922 114.64 30.9858C113.816 31.2699 112.864 31.4119 111.785 31.4119ZM113.518 27.2358C114.408 27.2358 115.194 27.0606 115.876 26.7102C116.558 26.3504 117.093 25.8674 117.481 25.2614C117.869 24.6553 118.063 23.9687 118.063 23.2017V20.8864C117.874 21.0095 117.613 21.1231 117.282 21.2273C116.96 21.322 116.595 21.4119 116.188 21.4972C115.781 21.5729 115.374 21.6439 114.967 21.7102C114.559 21.767 114.19 21.8191 113.859 21.8665C113.148 21.9706 112.528 22.1364 111.998 22.3636C111.468 22.5909 111.056 22.8987 110.762 23.2869C110.469 23.6657 110.322 24.1392 110.322 24.7074C110.322 25.5312 110.62 26.161 111.217 26.5966C111.823 27.0227 112.59 27.2358 113.518 27.2358ZM126.366 39.1818V9.18182H132.332V12.8466H132.602C132.867 12.2595 133.251 11.6629 133.753 11.0568C134.264 10.4413 134.927 9.92992 135.741 9.52273C136.565 9.10606 137.588 8.89773 138.81 8.89773C140.4 8.89773 141.868 9.31439 143.213 10.1477C144.558 10.9716 145.632 12.2169 146.437 13.8835C147.242 15.5407 147.645 17.6193 147.645 20.1193C147.645 22.553 147.252 24.608 146.466 26.2841C145.689 27.9508 144.629 29.215 143.284 30.0767C141.949 30.929 140.453 31.3551 138.795 31.3551C137.621 31.3551 136.622 31.161 135.798 30.7727C134.984 30.3845 134.316 29.8968 133.795 29.3097C133.274 28.7131 132.877 28.1117 132.602 27.5057H132.417V39.1818H126.366ZM132.29 20.0909C132.29 21.3883 132.47 22.5199 132.829 23.4858C133.189 24.4517 133.71 25.2045 134.392 25.7443C135.074 26.2746 135.902 26.5398 136.878 26.5398C137.863 26.5398 138.696 26.2699 139.378 25.7301C140.06 25.1809 140.576 24.4233 140.926 23.4574C141.286 22.482 141.466 21.3598 141.466 20.0909C141.466 18.8314 141.291 17.7235 140.94 16.767C140.59 15.8106 140.074 15.0625 139.392 14.5227C138.71 13.983 137.872 13.7131 136.878 13.7131C135.893 13.7131 135.06 13.9735 134.378 14.4943C133.705 15.0152 133.189 15.7538 132.829 16.7102C132.47 17.6667 132.29 18.7936 132.29 20.0909Z" fill="black"/>
<path d="M152.816 31.3693C151.878 31.3693 151.073 31.0379 150.401 30.375C149.738 29.7027 149.407 28.8977 149.407 27.9602C149.407 27.0322 149.738 26.2367 150.401 25.5739C151.073 24.911 151.878 24.5795 152.816 24.5795C153.725 24.5795 154.52 24.911 155.202 25.5739C155.884 26.2367 156.225 27.0322 156.225 27.9602C156.225 28.5852 156.064 29.1581 155.742 29.679C155.429 30.1903 155.017 30.6023 154.506 30.9148C153.995 31.2178 153.431 31.3693 152.816 31.3693ZM176.946 15.4034L171.407 15.7443C171.312 15.2708 171.108 14.8447 170.796 14.4659C170.483 14.0777 170.071 13.7699 169.56 13.5426C169.058 13.3059 168.457 13.1875 167.756 13.1875C166.818 13.1875 166.028 13.3864 165.384 13.7841C164.74 14.1723 164.418 14.6932 164.418 15.3466C164.418 15.8674 164.626 16.3078 165.043 16.6676C165.46 17.0275 166.175 17.3163 167.188 17.5341L171.137 18.3295C173.258 18.7652 174.839 19.4659 175.881 20.4318C176.923 21.3977 177.443 22.6667 177.443 24.2386C177.443 25.6686 177.022 26.9233 176.179 28.0028C175.346 29.0824 174.2 29.9252 172.742 30.5312C171.293 31.1278 169.621 31.4261 167.728 31.4261C164.839 31.4261 162.538 30.8248 160.824 29.6222C159.12 28.41 158.121 26.7623 157.827 24.679L163.779 24.3665C163.959 25.2472 164.394 25.9195 165.086 26.3835C165.777 26.8381 166.662 27.0653 167.742 27.0653C168.802 27.0653 169.655 26.8617 170.299 26.4545C170.952 26.0379 171.283 25.5028 171.293 24.8494C171.283 24.3002 171.051 23.8504 170.597 23.5C170.142 23.1402 169.442 22.8655 168.495 22.6761L164.716 21.9233C162.586 21.4972 160.999 20.7585 159.958 19.7074C158.925 18.6562 158.409 17.3163 158.409 15.6875C158.409 14.286 158.788 13.0786 159.546 12.0653C160.313 11.0521 161.388 10.2708 162.77 9.72159C164.162 9.17235 165.791 8.89773 167.657 8.89773C170.412 8.89773 172.581 9.48011 174.162 10.6449C175.753 11.8097 176.681 13.3958 176.946 15.4034ZM188.712 31.4261C186.477 31.4261 184.555 30.9527 182.945 30.0057C181.344 29.0492 180.113 27.7235 179.252 26.0284C178.399 24.3333 177.973 22.3826 177.973 20.1761C177.973 17.9413 178.404 15.9811 179.266 14.2955C180.137 12.6004 181.373 11.2794 182.973 10.3324C184.574 9.37595 186.477 8.89773 188.683 8.89773C190.587 8.89773 192.253 9.24337 193.683 9.93466C195.113 10.6259 196.245 11.5966 197.078 12.8466C197.912 14.0966 198.371 15.5644 198.456 17.25H192.746C192.585 16.161 192.159 15.285 191.467 14.6222C190.786 13.9498 189.891 13.6136 188.783 13.6136C187.845 13.6136 187.026 13.8693 186.325 14.3807C185.634 14.8826 185.094 15.6165 184.706 16.5824C184.318 17.5483 184.124 18.7178 184.124 20.0909C184.124 21.483 184.313 22.6667 184.692 23.642C185.08 24.6174 185.625 25.3608 186.325 25.8722C187.026 26.3835 187.845 26.6392 188.783 26.6392C189.474 26.6392 190.094 26.4972 190.644 26.2131C191.202 25.929 191.662 25.517 192.021 24.9773C192.391 24.428 192.632 23.7699 192.746 23.0028H198.456C198.361 24.6695 197.907 26.1373 197.092 27.4062C196.288 28.6657 195.175 29.6506 193.754 30.3608C192.334 31.071 190.653 31.4261 188.712 31.4261Z" fill="#F7C92E"/>
</svg>
