<svg width="199" height="40" viewBox="0 0 199 40" fill="none" xmlns="http://www.w3.org/2000/svg">
<path d="M14.9297 21.7102V9.18182H20.9808V31H15.1712V27.0369H14.9439C14.4515 28.3153 13.6323 29.3428 12.4865 30.1193C11.3501 30.8958 9.96283 31.2841 8.32457 31.2841C6.86624 31.2841 5.5831 30.9527 4.47514 30.2898C3.36719 29.6269 2.50071 28.6847 1.87571 27.4631C1.26018 26.2415 0.94768 24.7784 0.93821 23.0739V9.18182H6.98935V21.9943C6.99882 23.2822 7.34446 24.3002 8.02628 25.0483C8.7081 25.7964 9.62192 26.1705 10.7678 26.1705C11.4969 26.1705 12.1787 26.0047 12.8132 25.6733C13.4477 25.3324 13.959 24.8305 14.3473 24.1676C14.745 23.5047 14.9392 22.6856 14.9297 21.7102ZM29.4722 18.3864V31H23.421V9.18182H29.1881V13.0312H29.4438C29.9267 11.7623 30.7364 10.7585 31.8727 10.0199C33.0091 9.27178 34.3869 8.89773 36.0063 8.89773C37.5214 8.89773 38.8424 9.22917 39.9693 9.89205C41.0962 10.5549 41.9722 11.5019 42.5972 12.733C43.2222 13.9545 43.5347 15.4129 43.5347 17.108V31H37.4835V18.1875C37.493 16.8523 37.1521 15.8106 36.4608 15.0625C35.7695 14.3049 34.8178 13.9261 33.6057 13.9261C32.7913 13.9261 32.0716 14.1013 31.4466 14.4517C30.8311 14.8021 30.3481 15.3134 29.9977 15.9858C29.6568 16.6487 29.4816 17.4489 29.4722 18.3864ZM45.9038 31V9.18182H51.955V31H45.9038ZM48.9436 6.36932C48.044 6.36932 47.2722 6.07102 46.6283 5.47443C45.9938 4.86837 45.6766 4.14394 45.6766 3.30114C45.6766 2.4678 45.9938 1.75284 46.6283 1.15625C47.2722 0.550188 48.044 0.247158 48.9436 0.247158C49.8432 0.247158 50.6103 0.550188 51.2447 1.15625C51.8887 1.75284 52.2107 2.4678 52.2107 3.30114C52.2107 4.14394 51.8887 4.86837 51.2447 5.47443C50.6103 6.07102 49.8432 6.36932 48.9436 6.36932ZM72.5557 15.4034L67.0159 15.7443C66.9212 15.2708 66.7176 14.8447 66.4051 14.4659C66.0926 14.0777 65.6807 13.7699 65.1693 13.5426C64.6674 13.3059 64.0661 13.1875 63.3653 13.1875C62.4278 13.1875 61.6371 13.3864 60.9932 13.7841C60.3492 14.1723 60.0273 14.6932 60.0273 15.3466C60.0273 15.8674 60.2356 16.3078 60.6523 16.6676C61.0689 17.0275 61.7839 17.3163 62.7972 17.5341L66.746 18.3295C68.8672 18.7652 70.4487 19.4659 71.4903 20.4318C72.532 21.3977 73.0528 22.6667 73.0528 24.2386C73.0528 25.6686 72.6314 26.9233 71.7886 28.0028C70.9553 29.0824 69.8095 29.9252 68.3511 30.5312C66.9023 31.1278 65.2309 31.4261 63.3369 31.4261C60.4487 31.4261 58.1475 30.8248 56.4335 29.6222C54.729 28.41 53.7299 26.7623 53.4364 24.679L59.3881 24.3665C59.568 25.2472 60.0036 25.9195 60.6949 26.3835C61.3862 26.8381 62.2716 27.0653 63.3511 27.0653C64.4117 27.0653 65.264 26.8617 65.908 26.4545C66.5614 26.0379 66.8928 25.5028 66.9023 24.8494C66.8928 24.3002 66.6608 23.8504 66.2062 23.5C65.7517 23.1402 65.0509 22.8655 64.104 22.6761L60.3256 21.9233C58.1949 21.4972 56.6087 20.7585 55.567 19.7074C54.5348 18.6562 54.0187 17.3163 54.0187 15.6875C54.0187 14.286 54.3975 13.0786 55.1551 12.0653C55.9222 11.0521 56.997 10.2708 58.3795 9.72159C59.7716 9.17235 61.4004 8.89773 63.2659 8.89773C66.0216 8.89773 68.1902 9.48011 69.7716 10.6449C71.3625 11.8097 72.2905 13.3958 72.5557 15.4034ZM78.7672 31L72.8297 9.18182H78.9518L82.3325 23.8409H82.5314L86.0541 9.18182H92.0626L95.6422 23.7557H95.8268L99.1507 9.18182H105.259L99.3354 31H92.9291L89.1791 17.2784H88.9092L85.1592 31H78.7672ZM112.308 31.4119C110.916 31.4119 109.676 31.1705 108.587 30.6875C107.498 30.1951 106.636 29.4706 106.001 28.5142C105.376 27.5483 105.064 26.3456 105.064 24.9062C105.064 23.6941 105.286 22.6761 105.732 21.8523C106.177 21.0284 106.783 20.3655 107.55 19.8636C108.317 19.3617 109.188 18.983 110.163 18.7273C111.148 18.4716 112.18 18.2917 113.26 18.1875C114.529 18.0549 115.552 17.9318 116.328 17.8182C117.105 17.6951 117.668 17.5152 118.018 17.2784C118.369 17.0417 118.544 16.6913 118.544 16.2273V16.142C118.544 15.2424 118.26 14.5464 117.692 14.054C117.133 13.5616 116.338 13.3153 115.305 13.3153C114.216 13.3153 113.35 13.5568 112.706 14.0398C112.062 14.5133 111.636 15.1098 111.428 15.8295L105.831 15.375C106.115 14.0492 106.674 12.9034 107.507 11.9375C108.34 10.9621 109.415 10.214 110.732 9.69318C112.057 9.16288 113.591 8.89773 115.334 8.89773C116.546 8.89773 117.706 9.03977 118.814 9.32386C119.931 9.60795 120.921 10.0483 121.783 10.6449C122.654 11.2415 123.34 12.0085 123.842 12.946C124.344 13.8741 124.595 14.9867 124.595 16.2841V31H118.857V27.9744H118.686C118.336 28.6562 117.867 29.2576 117.28 29.7784C116.693 30.2898 115.987 30.6922 115.163 30.9858C114.339 31.2699 113.388 31.4119 112.308 31.4119ZM114.041 27.2358C114.931 27.2358 115.717 27.0606 116.399 26.7102C117.081 26.3504 117.616 25.8674 118.004 25.2614C118.393 24.6553 118.587 23.9687 118.587 23.2017V20.8864C118.397 21.0095 118.137 21.1231 117.805 21.2273C117.483 21.322 117.119 21.4119 116.712 21.4972C116.304 21.5729 115.897 21.6439 115.49 21.7102C115.083 21.767 114.714 21.8191 114.382 21.8665C113.672 21.9706 113.052 22.1364 112.521 22.3636C111.991 22.5909 111.579 22.8987 111.286 23.2869C110.992 23.6657 110.845 24.1392 110.845 24.7074C110.845 25.5312 111.143 26.161 111.74 26.5966C112.346 27.0227 113.113 27.2358 114.041 27.2358ZM126.89 39.1818V9.18182H132.856V12.8466H133.126C133.391 12.2595 133.774 11.6629 134.276 11.0568C134.787 10.4413 135.45 9.92992 136.265 9.52273C137.089 9.10606 138.111 8.89773 139.333 8.89773C140.924 8.89773 142.392 9.31439 143.736 10.1477C145.081 10.9716 146.156 12.2169 146.961 13.8835C147.766 15.5407 148.168 17.6193 148.168 20.1193C148.168 22.553 147.775 24.608 146.989 26.2841C146.213 27.9508 145.152 29.215 143.807 30.0767C142.472 30.929 140.976 31.3551 139.319 31.3551C138.145 31.3551 137.145 31.161 136.322 30.7727C135.507 30.3845 134.84 29.8968 134.319 29.3097C133.798 28.7131 133.4 28.1117 133.126 27.5057H132.941V39.1818H126.89ZM132.813 20.0909C132.813 21.3883 132.993 22.5199 133.353 23.4858C133.713 24.4517 134.234 25.2045 134.915 25.7443C135.597 26.2746 136.426 26.5398 137.401 26.5398C138.386 26.5398 139.219 26.2699 139.901 25.7301C140.583 25.1809 141.099 24.4233 141.449 23.4574C141.809 22.482 141.989 21.3598 141.989 20.0909C141.989 18.8314 141.814 17.7235 141.464 16.767C141.113 15.8106 140.597 15.0625 139.915 14.5227C139.234 13.983 138.395 13.7131 137.401 13.7131C136.416 13.7131 135.583 13.9735 134.901 14.4943C134.229 15.0152 133.713 15.7538 133.353 16.7102C132.993 17.6667 132.813 18.7936 132.813 20.0909ZM153.339 31.3693C152.402 31.3693 151.597 31.0379 150.924 30.375C150.262 29.7027 149.93 28.8977 149.93 27.9602C149.93 27.0322 150.262 26.2367 150.924 25.5739C151.597 24.911 152.402 24.5795 153.339 24.5795C154.248 24.5795 155.044 24.911 155.726 25.5739C156.407 26.2367 156.748 27.0322 156.748 27.9602C156.748 28.5852 156.587 29.1581 156.265 29.679C155.953 30.1903 155.541 30.6023 155.03 30.9148C154.518 31.2178 153.955 31.3693 153.339 31.3693ZM177.47 15.4034L171.93 15.7443C171.835 15.2708 171.632 14.8447 171.319 14.4659C171.007 14.0777 170.595 13.7699 170.083 13.5426C169.581 13.3059 168.98 13.1875 168.279 13.1875C167.342 13.1875 166.551 13.3864 165.907 13.7841C165.263 14.1723 164.941 14.6932 164.941 15.3466C164.941 15.8674 165.15 16.3078 165.566 16.6676C165.983 17.0275 166.698 17.3163 167.711 17.5341L171.66 18.3295C173.781 18.7652 175.363 19.4659 176.404 20.4318C177.446 21.3977 177.967 22.6667 177.967 24.2386C177.967 25.6686 177.546 26.9233 176.703 28.0028C175.869 29.0824 174.724 29.9252 173.265 30.5312C171.816 31.1278 170.145 31.4261 168.251 31.4261C165.363 31.4261 163.062 30.8248 161.348 29.6222C159.643 28.41 158.644 26.7623 158.35 24.679L164.302 24.3665C164.482 25.2472 164.918 25.9195 165.609 26.3835C166.3 26.8381 167.186 27.0653 168.265 27.0653C169.326 27.0653 170.178 26.8617 170.822 26.4545C171.475 26.0379 171.807 25.5028 171.816 24.8494C171.807 24.3002 171.575 23.8504 171.12 23.5C170.666 23.1402 169.965 22.8655 169.018 22.6761L165.24 21.9233C163.109 21.4972 161.523 20.7585 160.481 19.7074C159.449 18.6562 158.933 17.3163 158.933 15.6875C158.933 14.286 159.312 13.0786 160.069 12.0653C160.836 11.0521 161.911 10.2708 163.294 9.72159C164.686 9.17235 166.314 8.89773 168.18 8.89773C170.936 8.89773 173.104 9.48011 174.686 10.6449C176.277 11.8097 177.205 13.3958 177.47 15.4034ZM189.235 31.4261C187 31.4261 185.078 30.9527 183.468 30.0057C181.868 29.0492 180.637 27.7235 179.775 26.0284C178.923 24.3333 178.497 22.3826 178.497 20.1761C178.497 17.9413 178.927 15.9811 179.789 14.2955C180.66 12.6004 181.896 11.2794 183.497 10.3324C185.097 9.37595 187 8.89773 189.207 8.89773C191.11 8.89773 192.777 9.24337 194.207 9.93466C195.637 10.6259 196.768 11.5966 197.602 12.8466C198.435 14.0966 198.894 15.5644 198.98 17.25H193.269C193.108 16.161 192.682 15.285 191.991 14.6222C191.309 13.9498 190.414 13.6136 189.306 13.6136C188.369 13.6136 187.55 13.8693 186.849 14.3807C186.158 14.8826 185.618 15.6165 185.23 16.5824C184.841 17.5483 184.647 18.7178 184.647 20.0909C184.647 21.483 184.837 22.6667 185.215 23.642C185.604 24.6174 186.148 25.3608 186.849 25.8722C187.55 26.3835 188.369 26.6392 189.306 26.6392C189.998 26.6392 190.618 26.4972 191.167 26.2131C191.726 25.929 192.185 25.517 192.545 24.9773C192.914 24.428 193.156 23.7699 193.269 23.0028H198.98C198.885 24.6695 198.43 26.1373 197.616 27.4062C196.811 28.6657 195.698 29.6506 194.278 30.3608C192.857 31.071 191.177 31.4261 189.235 31.4261Z" fill="white"/>
</svg>
