<svg width="19" height="21" viewBox="0 0 19 21" fill="none" xmlns="http://www.w3.org/2000/svg">
<path d="M9.50997 1.9192C10.14 1.9192 10.71 2.33701 10.92 2.94843L11.15 3.62101L11.81 3.87577C14.33 4.84386 16.02 7.33034 16.02 10.0614V13.1185C16.02 13.6994 16.22 14.7592 17.52 15.5948V16.6852H1.51V15.5948C2.81 14.7592 3.01 13.6994 3.01 13.1287C3.01 12.6192 3.01 10.0716 3.01 10.0716C3.01 7.34053 4.7 4.85405 7.22 3.88596L7.87997 3.6312L8.10997 2.95863C8.30997 2.33701 8.87997 1.9192 9.50997 1.9192ZM9.50997 0.390625C8.19997 0.390625 7.09 1.25682 6.69 2.4491C3.66 3.61082 1.51 6.58643 1.51 10.0716C1.51 10.0716 1.52 12.6192 1.51 13.1287C1.51 13.7401 0.97 14.1681 0.53 14.4127C0.21 14.5961 0 14.9324 0 15.3095V17.2049C0 17.7654 0.45 18.224 1 18.224H18C18.55 18.224 19 17.7654 19 17.2049V15.3095C19 14.9324 18.79 14.5961 18.47 14.4127C18.04 14.1681 17.5 13.7401 17.5 13.1287C17.5 12.6192 17.5 10.0716 17.5 10.0716C17.5 6.58643 15.35 3.61082 12.32 2.4491C11.93 1.25682 10.82 0.390625 9.50997 0.390625Z" fill="black"/>
<path d="M11.2398 18.2239C10.8898 18.8353 10.2498 19.2429 9.50977 19.2429C8.76977 19.2429 8.11977 18.8353 7.77977 18.2239H11.2398ZM12.9598 16.6953H6.05977C6.03977 16.8584 6.00977 17.0316 6.00977 17.2048C6.00977 19.1716 7.57977 20.7715 9.50977 20.7715C11.4398 20.7715 13.0098 19.1716 13.0098 17.2048C13.0098 17.0316 12.9798 16.8584 12.9598 16.6953Z" fill="black"/>
</svg>
