<svg width="23" height="21" viewBox="0 0 23 21" fill="none" xmlns="http://www.w3.org/2000/svg">
<path d="M11.5 21C11.3895 20.9982 11.2812 20.9675 11.1854 20.9107C11.066 20.8548 8.37547 19.2802 5.64151 16.7563C1.89859 13.2831 1.68098e-06 9.8323 1.68098e-06 6.482C-0.000982307 5.09584 0.430054 3.74592 1.22975 2.63067C2.02945 1.51541 3.15562 0.693652 4.44273 0.286179C5.72984 -0.121294 7.10999 -0.0929851 8.3803 0.366945C9.65062 0.826875 10.7441 1.69416 11.5 2.84133C12.2559 1.69416 13.3494 0.826875 14.6197 0.366945C15.89 -0.0929851 17.2702 -0.121294 18.5573 0.286179C19.8444 0.693652 20.9706 1.51541 21.7703 2.63067C22.5699 3.74592 23.001 5.09584 23 6.482C23 9.8323 21.1014 13.2831 17.3585 16.7563C14.6245 19.2802 11.934 20.8548 11.8146 20.9107C11.7188 20.9675 11.6105 20.9982 11.5 21ZM6.29245 1.34486C4.96887 1.34486 3.6995 1.88609 2.76359 2.84949C1.82768 3.81289 1.30189 5.11954 1.30189 6.482C1.30189 12.8811 9.74245 18.4649 11.5 19.5482C13.2575 18.4649 21.6981 12.8811 21.6981 6.482C21.7006 5.29249 21.3021 4.13894 20.5704 3.21822C19.8388 2.2975 18.8194 1.66667 17.6863 1.43339C16.5532 1.20011 15.3765 1.37883 14.3571 1.93906C13.3377 2.49929 12.5388 3.40631 12.0967 4.50531C12.05 4.62914 11.968 4.73554 11.8615 4.81056C11.7551 4.88559 11.629 4.92573 11.5 4.92573C11.371 4.92573 11.2449 4.88559 11.1385 4.81056C11.032 4.73554 10.95 4.62914 10.9033 4.50531C10.524 3.56861 9.88358 2.76856 9.06298 2.20609C8.24239 1.64362 7.27833 1.34394 6.29245 1.34486Z" fill="black"/>
</svg>
