<svg width="22" height="21" viewBox="0 0 22 21" fill="none" xmlns="http://www.w3.org/2000/svg">
<path d="M16.75 20.772C17.5784 20.772 18.25 20.0876 18.25 19.2434C18.25 18.3992 17.5784 17.7148 16.75 17.7148C15.9216 17.7148 15.25 18.3992 15.25 19.2434C15.25 20.0876 15.9216 20.772 16.75 20.772Z" fill="black"/>
<path d="M7.75 20.772C8.57843 20.772 9.25 20.0876 9.25 19.2434C9.25 18.3992 8.57843 17.7148 7.75 17.7148C6.92157 17.7148 6.25 18.3992 6.25 19.2434C6.25 20.0876 6.92157 20.772 7.75 20.772Z" fill="black"/>
<path d="M18.5 15.9311H5.96C5.84 15.9311 5.74 15.8394 5.71 15.7273L3.04 1.36886C3.02 1.24657 2.91 1.16504 2.79 1.16504H1" stroke="black" stroke-width="1.5" stroke-miterlimit="10" stroke-linecap="round"/>
<path d="M5.5 11.8548H19.28C19.41 11.8548 19.51 11.7631 19.53 11.6306L20.46 4.49725C20.48 4.34439 20.36 4.21191 20.21 4.21191H4.25" stroke="black" stroke-width="1.5" stroke-miterlimit="10" stroke-linecap="round"/>
</svg>
